PathFileType	4	(X/Y/Z)	C:/Users/beibeiliu/ov580/test_trc/User1\sequence.9_training_dense_left.trc
DataRate	CameraRate	NumFrames	NumMarkers	Units	OrigDataRate	OrigDataStartFrame	OrigNumFrames
120	120	10	19	mm	120	40	314
Frame#	Time	ThumbCMC			ThumbMCP			ThumbIP			ThumbTip			IndexMCP			IndexPIP			IndexTip			MiddleMCP			MiddlePIP			MiddleTip			RingMCP			RingPIP			RingTip			PinkyMCP			PinkyPIP			PinkyTip			BackHand1			BackHand2			BackHand3	
		X0	Y0	Z0	X1	Y1	Z1	X2	Y2	Z2	X3	Y3	Z3	X4	Y4	Z4	X5	Y5	Z5	X6	Y6	Z6	X7	Y7	Z7	X8	Y8	Z8	X9	Y9	Z9	X10	Y10	Z10	X11	Y11	Z11	X12	Y12	Z12	X13	Y13	Z13	X14	Y14	Z14	X15	Y15	Z15	X16	Y16	Z16	X17	Y17	Z17	X18	Y18	Z18	
39	0.325	-260.752	134.858	7.7126	-277.072	153.932	-3.55642	-298.895	166.576	-21.7214	-316.892	177.643	-28.3693	-255.363	125.247	-84.2651	-255.434	125.277	-105.367	-249.894	123.855	-135.329	-232.638	105.502	-92.019	-228.035	109.362	-120.075	-218.661	111.025	-145.228	-210.93	99.9274	-84.2995	-200.497	102.271	-111.253	-188.55	105.883	-135.966	-180.764	92.2483	-64.8922	-168.959	91.8434	-79.6564	-157.402	87.5147	-101.818	-225.275	88.4648	-26.7787	-223.826	82.8207	4.97207	-253.424	107.571	-9.60377	
40	0.333333	-265.579	135.281	8.54366	-281.606	150.571	-4.60131	-302.032	160.547	-19.37	-319.445	171.243	-24.3493	-258.699	119.053	-83.343	-259.988	120.195	-107.043	-254.015	116.019	-132.4	-236.417	102.422	-91.1753	-233.475	104.68	-118.085	-228.774	109.49	-148.52	-210.738	95.6841	-85.2671	-205.65	98.5904	-111.462	-196.626	105.353	-138.643	-185.842	91.0899	-65.1017	-171.022	90.8132	-80.28	-163.969	85.5557	-104.052	-221.23	84.6875	-30.1638	-222.65	81.8713	5.53683	-251.271	102.194	-9.89384	
41	0.341667	-266.237	132.378	10.7474	-280.603	148.493	-0.365201	-306.349	158.388	-18.308	-321.347	166.489	-25.3892	-264.745	116.905	-78.3094	-265.875	114.428	-102.343	-260.207	110.331	-129.374	-240.539	98.9029	-91.3575	-239.875	101.019	-118.077	-231.687	101.392	-147.63	-213.908	92.4546	-84.7398	-212.223	97.2707	-111.884	-205.05	103.016	-137.675	-184.311	89.1587	-66.2545	-174.599	89.8781	-84.146	-163.613	84.0541	-107.616	-223.499	85.19	-27.9465	-223.345	83.806	5.94471	-252.755	102.666	-6.76506	
42	0.35	-264.342	131.105	9.41477	-286.349	145.972	2.50235	-304.552	153.776	-18.8722	-320.996	162.95	-23.2729	-272.052	113.334	-74.8195	-272.808	109.505	-103.616	-270.913	105.647	-131.834	-246.165	96.1315	-90.9356	-244.741	95.8278	-117.34	-243.716	98.7008	-149.8	-218.935	90.9775	-84.4448	-214.025	92.1495	-113.727	-212.157	98.303	-138.414	-188.428	88.5634	-67.7289	-180.428	88.3075	-86.876	-173.538	82.6099	-109.245	-224.87	84.1809	-24.5967	-220.464	82.7706	7.69411	-251.739	100.544	-5.10486	
43	0.358333	-265.01	130.947	13.1698	-283.998	144.157	0.947315	-304.774	151.736	-11.7692	-326.325	161.011	-20.8512	-272.285	107.594	-74.5169	-279.9	105.82	-96.9423	-277.348	100.619	-123.827	-249.87	92.4423	-84.7854	-255.163	92.5672	-116.647	-250.313	93.3192	-144.861	-225.779	88.834	-86.9648	-223.557	88.6582	-110.523	-217.783	92.4643	-138.55	-195.606	87.4972	-72.0707	-186.12	86.7281	-87.5276	-181.262	80.4778	-108.051	-228.24	83.6325	-26.5839	-217.863	80.4397	7.74042	-253.584	100.658	-2.46277	
44	0.366667	-261.056	130.081	14.5463	-287.393	145.093	4.75501	-312.26	149.932	-11.3055	-326.199	157.523	-19.5591	-278.933	106.983	-69.5533	-283.934	100.724	-93.5411	-283.624	95.0933	-123.725	-257.854	91.0741	-81.4206	-258.643	88.3523	-110.189	-259.411	88.4169	-143.197	-230.131	85.4904	-86.776	-230.313	84.9517	-109.486	-226.044	88.4895	-138.345	-200.628	86.1594	-68.4359	-190.073	84.7975	-90.8421	-188.346	78.2552	-114.67	-228.458	83.4793	-23.9467	-222.593	83.8091	8.09348	-257.032	99.5303	-3.78419	
45	0.375	-264.189	131.382	14.0149	-289.15	144.637	3.41597	-308.104	150.498	-9.10236	-325.954	158.226	-13.192	-284.418	103.72	-67.5503	-291.671	97.6669	-93.2289	-292.613	91.4063	-119.882	-263.607	87.0718	-82.7075	-264.338	83.1489	-112.719	-266.839	82.5009	-139.963	-239.684	83.4403	-82.8059	-238.479	82.2324	-107.924	-236.213	83.9744	-139.275	-203.506	82.391	-73.12	-195.425	81.1849	-89.5454	-194.9	73.7967	-111.161	-227.663	80.3648	-22.9987	-223.084	82.6961	11.1866	-255.69	99.606	-0.531056	
46	0.383333	-268.077	131.289	13.7811	-291.12	146.332	7.87098	-311.31	151.049	-6.41307	-330.384	158.718	-16.3136	-289.65	101.219	-63.3221	-296.293	92.9014	-86.5087	-297.762	84.8206	-115.368	-271.802	84.068	-79.3637	-276.412	79.6383	-109.449	-276.414	77.239	-136.639	-240.421	77.3674	-80.5966	-247.205	77.245	-107.037	-243.546	76.8212	-133.749	-208.733	78.1442	-73.3312	-205.847	76.7488	-87.2941	-202.116	70.6445	-110.921	-235.106	80.6472	-22.6257	-222.297	83.5455	10.9119	-258.401	100.615	0.441649	
47	0.391667	-267.93	135.309	16.0644	-288.701	148.281	4.88668	-316.005	155.633	-5.27793	-331.329	165.376	-10.1948	-296.167	98.9426	-62.2179	-304.4	93.4318	-81.846	-310.895	83.6823	-109.122	-275.919	81.6655	-72.8223	-281.868	75.2917	-102.306	-288.844	72.644	-131.79	-249.188	74.3403	-81.0207	-255.058	72.8986	-103.585	-254.866	70.033	-131.226	-217.267	75.0679	-68.6392	-210.839	71.4405	-88.6321	-210.382	62.9686	-112.499	-235.692	81.0846	-18.2702	-228.56	83.4495	11.0552	-261.268	100.7	3.35282	
48	0.4	-264.742	138.359	17.9806	-286.734	153.804	5.91894	-313.641	162.925	-4.96934	-328.273	171.305	-16.8207	-300.595	101.306	-57.0947	-310.057	92.2531	-79.2994	-317.649	83.2246	-103.716	-281.993	80.4868	-69.3568	-294.971	76.4479	-97.5769	-302.406	71.3318	-127.533	-258.518	74.5776	-73.0958	-261.369	66.3692	-101.814	-268.965	67.4317	-128.991	-221.971	68.9239	-68.9944	-220.561	64.2263	-88.7642	-221.633	55.2219	-106.308	-240.37	78.2652	-15.3395	-230.334	83.4253	11.3446	-259.97	100.748	5.63216	
